<svg xmlns="http://www.w3.org/2000/svg" viewBox="0 0 19.674 19.674" width="512" height="512"><path d="M10.804 7.278l-.961.959-.007-.001c-.005 0-.007.005-.013.005l-.702-.706-.19.193.709.707c0 .111.089.2.197.2a.2.2 0 0 0 .199-.2l-.002-.005.961-.96-.191-.192zm1.213 11.382v-8.442h.163V6.774h.057v-.266h-.379v-.4l-.888-1.661h.004V3.292h-.017C10.888 3.132 9.95.416 9.883 0H9.79c-.066.416-1.007 3.132-1.072 3.292h-.02v1.154l-.88 1.662h-.002v.4h-.38v.266h.06v3.443h.162v8.443h-.69v1.014h5.738V18.66h-.689zm-2.181-8.522a1.703 1.703 0 1 1 .003-3.405 1.703 1.703 0 0 1-.003 3.405z" fill="#0e5725"/></svg>