<svg xmlns="http://www.w3.org/2000/svg" viewBox="0 0 512 512"><path d="M379.586 0H132.414a8.829 8.829 0 0 0-8.828 8.828v8.828a8.829 8.829 0 0 0 8.828 8.828h247.172a8.829 8.829 0 0 0 8.828-8.828V8.828A8.829 8.829 0 0 0 379.586 0zM132.414 512h247.172a8.829 8.829 0 0 0 8.828-8.828v-8.828a8.829 8.829 0 0 0-8.828-8.828H132.414a8.829 8.829 0 0 0-8.828 8.828v8.828a8.829 8.829 0 0 0 8.828 8.828z" fill="#c7cfe2"/><path d="M289.443 238.105l66.941-73.026a88.279 88.279 0 0 0 23.202-59.649V26.483H132.414v78.947a88.275 88.275 0 0 0 23.202 59.649l66.941 73.026a26.483 26.483 0 0 1 0 35.79l-66.94 73.025a88.278 88.278 0 0 0-23.203 59.65v78.947h247.172V406.57a88.274 88.274 0 0 0-23.203-59.65l-66.94-73.025A26.481 26.481 0 0 1 282.482 256a26.492 26.492 0 0 1 6.961-17.895z" fill="#eff2fa"/><path d="M236.975 346.92l21.516-73.025c1.439-4.884 2.238-11.27 2.238-17.895 0-6.626-.799-13.011-2.237-17.895l-21.517-73.026c-4.797-16.28-7.458-37.564-7.458-59.649V26.483h-97.103v78.947a88.27 88.27 0 0 0 23.202 59.649l66.941 73.026a26.481 26.481 0 0 1 0 35.79l-66.94 73.025a88.276 88.276 0 0 0-23.203 59.65v78.947h97.103v-78.946c0-22.087 2.662-43.371 7.458-59.651z" fill="#e4eaf6"/><path d="M220.69 17.655V8.828A8.829 8.829 0 0 1 229.518 0h-97.103a8.829 8.829 0 0 0-8.828 8.828v8.828a8.829 8.829 0 0 0 8.828 8.828h97.103a8.829 8.829 0 0 1-8.828-8.829zm0 485.517v-8.828a8.829 8.829 0 0 1 8.828-8.828h-97.103a8.829 8.829 0 0 0-8.828 8.828v8.828a8.829 8.829 0 0 0 8.828 8.828h97.103a8.827 8.827 0 0 1-8.828-8.828z" fill="#afb9d2"/><path d="M336.862 364.815l-16.204-17.677a8.826 8.826 0 0 0-6.507-2.862h-44.909a8.829 8.829 0 0 1-8.828-8.828v-89.177c0-9.474 3.01-18.919 9.385-25.928l.121-.134 48.113-52.486H204c-3.84 0-5.848 4.565-3.254 7.396l41.332 45.09.122.134c6.375 7.008 9.386 16.454 9.386 25.928v89.176a8.829 8.829 0 0 1-8.828 8.828h-44.909a8.827 8.827 0 0 0-6.507 2.862l-16.203 17.676a61.795 61.795 0 0 0-16.243 41.757v48.05a4.414 4.414 0 0 0 4.414 4.414h185.38a4.414 4.414 0 0 0 4.414-4.414v-48.05a61.804 61.804 0 0 0-16.242-41.755z" fill="#ebd2af"/><path d="M200.747 175.121l41.332 45.09.122.134c6.375 7.008 9.385 16.454 9.385 25.928v51.06l6.905-23.436c.939-3.188 1.572-7.047 1.922-11.164V249.27c-.35-4.116-.983-7.976-1.922-11.164l-20.737-70.381H204c-3.84-.001-5.848 4.564-3.253 7.396zm28.77 231.449c0-22.087 2.662-43.37 7.458-59.651l.779-2.644h-39.905a8.827 8.827 0 0 0-6.507 2.862l-16.203 17.676a61.799 61.799 0 0 0-16.243 41.757v48.051a4.414 4.414 0 0 0 4.414 4.414h66.207V406.57z" fill="#e1c3a0"/></svg>