<?xml version="1.0" encoding="utf-8"?>
<!-- Generator: Adobe Illustrator 19.0.0, SVG Export Plug-In . SVG Version: 6.00 Build 0)  -->
<svg version="1.1" id="Layer_1" xmlns="http://www.w3.org/2000/svg" xmlns:xlink="http://www.w3.org/1999/xlink" x="0px" y="0px"
	 viewBox="0 0 977.5 5477.5" style="enable-background:new 0 0 977.5 5477.5;" xml:space="preserve">
<style type="text/css">
	.st0{fill:#FFFFFF;}
	.st1{fill:none;stroke:#FFFFFF;stroke-width:5;stroke-miterlimit:10;}
</style>
<g>
	<circle class="st0" cx="271.2" cy="17.6" r="17.6"/>
	<path class="st1" d="M634.7,5147.1c34,6,68,15,100,30c9,4,13,13,17,21c5,14,3,28,0,43c-4,14-8,26-14,39c-6,15-14,28-23,43
		c-22,34-46,62-76,88c-1,1-3,1-4,2c-22,20-48,33-73.3,46.8"/>
	<path class="st1" d="M179.1,5061.1c8.9,7.9,19.6,13.3,30.4,18.1c11.1,4.9,22.3,10.4,33.9,13.8"/>
	<path class="st1" d="M821.6,4215.4c21.1,18.6,41.1,40.6,51.1,67.6c10,30-4,62-28,82c-2,2-4,2-6,4c-3,3-5,6-8,8c-8,5-15,11-24,15
		c-1,1-2,2-3,3c-89,50-181,79-277,110c-3,1-7,1-10,2c-15,6-30,10-45,15c-93,29-183,54-269,102c-2,1-4,3-6,5c-15,9-28,18-41,30
		c-1,1-2,0-3,1c-21,19-36,41-47,66c-4,10-7,21-9,32c-2,15-2,29-1,43c1,11,3,22,5,33c10,52,22,99,37,149c8,23,16,45,30.3,65.3"/>
	<path class="st1" d="M849.9,3195c2.8,1.1,5.8,2.1,7.8,4.1s4,3,7,5c23,17,39,41,33,70c-9,46-43,78-77,108c-1,1-3,1-4,2
		c-32,27-67,46-104,64c-32,16-64,31-98,44c-65,25-129,44-198,60c-2,1-4,3-6,4c-19,3-35,7-54,11c-26,5-50,8-75,12c-28,3-56,6-84,7
		c-61,13-122,36-164,87c-24,30-36,68-26,105c11,42,41,71,77,96c3,2,5,2,8,4c31,21,61,34,94.3,47.1"/>
	<path class="st1" d="M732.2,2282.1c-5.5,11-9.5,23-16.5,34l-2,1c-6,10-11,19-16,29c-1,1-2,2-3,3c-5,11-12,20-19,29
		c-9,9-17,19-26,28c-1,2-1,4-3,6c-3,2-7,3-9,6c-11,16-27,24-42,35c-17,13-34,22-52,30c-50,21-102,30-155,34c-13,1-26,1-39,2
		c-74,1-147-2-221,4c-14,1-28,6-39,15c-19,4-32,21-36,40c-1,4-2,8-3,12c-9,20-15,40-21,61c0,2-1,4-1,7c-19,68-30,135-25,205
		c2,25,8,49,15,73c6,19,14,35,25,52c33,48,80,77,135.1,85.9"/>
	<path class="st1" d="M800.3,1321.2c17.4,5.9,33.4,10.9,50.4,17.9c5,1,9,3,14,4c8,3,17,6,25,9c26,11,50,22,71,41c8,8,16,17,14,30
		c-3,13-11,21-21,28c-8,4-14,8-22,11c-14,5-27,10-41,16c-10,4-21,6-31,8c-33,9-64,16-97,21c-11,2-21,3-32,3c-6,1-12,3-18,4
		c-102,11-198,20-302,41c-1,0-3,2-4,2c-37,8-69,20-101,39c-11,7-20,15-29,24c-2,2-2,5-4,7c-11,11-16,24-21,37c-6,14-8,30-7,45
		c3,28,9,56,21,82c2,5,3,11,4,17c2,51,9,101,37,146c2,2,4,4,5,7c1,1,2,2,3,3s1,3,2,4c13,16,28,28,45,38c5,2,10,4,15,6
		c14,4,29,5,42.9,6.1"/>
	<path class="st1" d="M776.2,391.3c2.5,1.8,4.5,2.8,5.5,4.8c3,7,8,11,13,17c13,18,22,37,26,59c4,24,1,48-6,71c-6,19-13,37-22,55
		c-1,1-2,2-3,3c-13,22-25,42-42,61c-3,4-5,8-8,12c-18,19-34,37-53,54c-41,36-84,63-131,91c-11,6-22,11-33,17c-19,8-38,15-57,23
		c-7,2-14,4-21,6c-36,16-72,29-111,36c-55,8-108,9-157,38c-2,2-4,3-7,5c-4,4-8,8-13,11c-25,21-41,47-46,79c-5,33,5,64,21,92
		c3,4,7,8,10,12c9,9,19,15,29,24c8,6,16,10,25,13c17,7,34,13,51.6,14.3"/>
	<path class="st1" d="M262,26.3c-32.2,14.7-70.6,26.6-93.5,55.4c-11.3,14.3-19.2,33.8-10.4,51.3c7.8,15.5,18.8,29.1,31.6,40.8
		c14.6,13.3,31.3,24,48.7,33.1"/>
	<circle class="st0" cx="561.4" cy="5459.9" r="17.6"/>
</g>
</svg>
