<?xml version="1.0" encoding="utf-8"?>
<!-- Generator: Adobe Illustrator 19.0.0, SVG Export Plug-In . SVG Version: 6.00 Build 0)  -->
<svg version="1.1" id="Layer_1" xmlns="http://www.w3.org/2000/svg" xmlns:xlink="http://www.w3.org/1999/xlink" x="0px" y="0px"
	 viewBox="0 0 852.2 883" style="enable-background:new 0 0 852.2 883;" xml:space="preserve">
<style type="text/css">
	.st0{fill:#FFFFFF;}
	.st1{fill:none;stroke:#FFFFFF;stroke-width:5;stroke-miterlimit:10;}
</style>
<g>
	<circle class="st0" cx="57.7" cy="11.8" r="11.8"/>
	<path class="st1" d="M655.9,484.8c8.9-0.1,18.9,1.9,27.9,1.9c3,0,6,2,9,2c37,3,72,14,106,29c17,12,38,21,47,41c6,13,5,27-2,39
		c-13,21-36,31-58,41c-66,19-135,20-203,22c-95,2-189,1-284,8c-9,1-18,1-27,2c-42,5-83,9-122,23c-15,6-30,12-43,23
		c-28,23-47,50-66,81c-17,28-34,54-38.3,85"/>
	<path class="st1" d="M49.8,20.6c-25,40-49,90-31,137c5,11,13,19,23,27c15,11,31,17,46,28c4,2,8,4,12,6c18,12,35,22,51.9,33.4"/>
</g>
</svg>
