<svg id="Layer_1" xmlns="http://www.w3.org/2000/svg" viewBox="0 0 977.5 5477.5"><style>.st0{fill:#fff}.st1{fill:none;stroke:#fff;stroke-width:5;stroke-miterlimit:10}</style><circle class="st0" cx="271.2" cy="17.6" r="17.6"/><path class="st1" d="M634.7 5147.1c34 6 68 15 100 30 9 4 13 13 17 21 5 14 3 28 0 43-4 14-8 26-14 39-6 15-14 28-23 43-22 34-46 62-76 88-1 1-3 1-4 2-22 20-48 33-73.3 46.8m-382.3-398.8c8.9 7.9 19.6 13.3 30.4 18.1 11.1 4.9 22.3 10.4 33.9 13.8m578.2-877.6c21.1 18.6 41.1 40.6 51.1 67.6 10 30-4 62-28 82-2 2-4 2-6 4-3 3-5 6-8 8-8 5-15 11-24 15l-3 3c-89 50-181 79-277 110-3 1-7 1-10 2-15 6-30 10-45 15-93 29-183 54-269 102-2 1-4 3-6 5-15 9-28 18-41 30-1 1-2 0-3 1-21 19-36 41-47 66-4 10-7 21-9 32-2 15-2 29-1 43 1 11 3 22 5 33 10 52 22 99 37 149 8 23 16 45 30.3 65.3M849.9 3195c2.8 1.1 5.8 2.1 7.8 4.1s4 3 7 5c23 17 39 41 33 70-9 46-43 78-77 108-1 1-3 1-4 2-32 27-67 46-104 64-32 16-64 31-98 44-65 25-129 44-198 60-2 1-4 3-6 4-19 3-35 7-54 11-26 5-50 8-75 12-28 3-56 6-84 7-61 13-122 36-164 87-24 30-36 68-26 105 11 42 41 71 77 96 3 2 5 2 8 4 31 21 61 34 94.3 47.1m545.2-1643.1c-5.5 11-9.5 23-16.5 34l-2 1c-6 10-11 19-16 29l-3 3c-5 11-12 20-19 29-9 9-17 19-26 28-1 2-1 4-3 6-3 2-7 3-9 6-11 16-27 24-42 35-17 13-34 22-52 30-50 21-102 30-155 34-13 1-26 1-39 2-74 1-147-2-221 4-14 1-28 6-39 15-19 4-32 21-36 40l-3 12c-9 20-15 40-21 61 0 2-1 4-1 7-19 68-30 135-25 205 2 25 8 49 15 73 6 19 14 35 25 52 33 48 80 77 135.1 85.9m621.5-1752.8c17.4 5.9 33.4 10.9 50.4 17.9 5 1 9 3 14 4 8 3 17 6 25 9 26 11 50 22 71 41 8 8 16 17 14 30-3 13-11 21-21 28-8 4-14 8-22 11-14 5-27 10-41 16-10 4-21 6-31 8-33 9-64 16-97 21-11 2-21 3-32 3-6 1-12 3-18 4-102 11-198 20-302 41-1 0-3 2-4 2-37 8-69 20-101 39-11 7-20 15-29 24-2 2-2 5-4 7-11 11-16 24-21 37-6 14-8 30-7 45 3 28 9 56 21 82 2 5 3 11 4 17 2 51 9 101 37 146 2 2 4 4 5 7l3 3c1 1 1 3 2 4 13 16 28 28 45 38l15 6c14 4 29 5 42.9 6.1M776.2 391.3c2.5 1.8 4.5 2.8 5.5 4.8 3 7 8 11 13 17 13 18 22 37 26 59 4 24 1 48-6 71-6 19-13 37-22 55l-3 3c-13 22-25 42-42 61-3 4-5 8-8 12-18 19-34 37-53 54-41 36-84 63-131 91-11 6-22 11-33 17-19 8-38 15-57 23l-21 6c-36 16-72 29-111 36-55 8-108 9-157 38-2 2-4 3-7 5-4 4-8 8-13 11-25 21-41 47-46 79-5 33 5 64 21 92 3 4 7 8 10 12 9 9 19 15 29 24 8 6 16 10 25 13 17 7 34 13 51.6 14.3M262 26.3c-32.2 14.7-70.6 26.6-93.5 55.4-11.3 14.3-19.2 33.8-10.4 51.3 7.8 15.5 18.8 29.1 31.6 40.8 14.6 13.3 31.3 24 48.7 33.1"/><circle class="st0" cx="561.4" cy="5459.9" r="17.6"/></svg>