<svg id="Layer_1" xmlns="http://www.w3.org/2000/svg" viewBox="0 0 852.2 883"><style>.st0{fill:#fff}.st1{fill:none;stroke:#fff;stroke-width:5;stroke-miterlimit:10}</style><circle class="st0" cx="57.7" cy="11.8" r="11.8"/><path class="st1" d="M655.9 484.8c8.9-.1 18.9 1.9 27.9 1.9 3 0 6 2 9 2 37 3 72 14 106 29 17 12 38 21 47 41 6 13 5 27-2 39-13 21-36 31-58 41-66 19-135 20-203 22-95 2-189 1-284 8-9 1-18 1-27 2-42 5-83 9-122 23-15 6-30 12-43 23-28 23-47 50-66 81-17 28-34 54-38.3 85M49.8 20.6c-25 40-49 90-31 137 5 11 13 19 23 27 15 11 31 17 46 28l12 6c18 12 35 22 51.9 33.4"/></svg>